<?xml version="1.0" encoding="UTF-8" standalone="no" ?>
<!DOCTYPE svg PUBLIC "-//W3C//DTD SVG 1.1//EN" "http://www.w3.org/Graphics/SVG/1.1/DTD/svg11.dtd">
<svg xmlns="http://www.w3.org/2000/svg" xmlns:xlink="http://www.w3.org/1999/xlink" version="1.1" width="1000" height="500" viewBox="0 0 1000 500" xml:space="preserve">
<desc>Created with Fabric.js 4.2.0</desc>
<defs>
</defs>
<rect x="0" y="0" width="100%" height="100%" fill="transparent"></rect>
<g transform="matrix(0 0 0 0 0 0)" id="eb7eddbf-0ee1-4025-88f8-b2ca937975a7"  >
</g>
<g transform="matrix(1 0 0 1 500 250)" id="bf906794-c6c9-4acb-8350-e5e82e98d762"  >
<rect style="stroke: none; stroke-width: 1; stroke-dasharray: none; stroke-linecap: butt; stroke-dashoffset: 0; stroke-linejoin: miter; stroke-miterlimit: 4; fill: rgb(255,255,255); fill-rule: nonzero; opacity: 1; visibility: hidden;" vector-effect="non-scaling-stroke"  x="-500" y="-250" rx="0" ry="0" width="1000" height="500" />
</g>
<g transform="matrix(2 -0.17 0.17 2 503 174.52)" style="" id="8fb201f8-4b65-4916-9ba0-7a4ad0ca84fa"  >
		<text xml:space="preserve" font-family="Lobster" font-size="105" font-style="normal" font-weight="900" style="stroke: none; stroke-width: 1; stroke-dasharray: none; stroke-linecap: butt; stroke-dashoffset: 0; stroke-linejoin: miter; stroke-miterlimit: 4; fill: rgb(255,244,0); fill-rule: nonzero; opacity: 1; white-space: pre;" ><tspan x="-222.9" y="32.98" >B</tspan><tspan x="-127.77" y="32.98" >A</tspan><tspan x="-29.8" y="32.98" >S</tspan><tspan x="57.87" y="32.98" >R</tspan><tspan x="148.8" y="32.98" >Y</tspan></text>
</g>
<g transform="matrix(1.15 -0.1 0.1 1.15 520.58 394.32)" style="" id="0530f07d-9888-4ca0-8ce6-db3d53c87c07"  >
		<text xml:space="preserve" font-family="Raleway" font-size="84" font-style="normal" font-weight="900" style="stroke: none; stroke-width: 1; stroke-dasharray: none; stroke-linecap: butt; stroke-dashoffset: 0; stroke-linejoin: miter; stroke-miterlimit: 4; fill: rgb(0,0,76); fill-rule: nonzero; opacity: 1; white-space: pre;" ><tspan x="-419.91" y="26.39" >F</tspan><tspan x="-374.89" y="26.39" >u</tspan><tspan x="-322.97" y="26.39" >l</tspan><tspan x="-294.83" y="26.39" >l</tspan><tspan x="-266.69" y="26.39" style="white-space: pre; "> </tspan><tspan x="-249.47" y="26.39" >s</tspan><tspan x="-209.57" y="26.39" >t</tspan><tspan x="-175.72" y="26.39" >a</tspan><tspan x="-127.09" y="26.39" >c</tspan><tspan x="-80.3" y="26.39" >k</tspan><tspan x="-33.09" y="26.39" style="white-space: pre; "> </tspan><tspan x="-15.87" y="26.39" >d</tspan><tspan x="38.31" y="26.39" >e</tspan><tspan x="86.36" y="26.39" >v</tspan><tspan x="130.46" y="26.39" >e</tspan><tspan x="179.93" y="26.39" >l</tspan><tspan x="208.07" y="26.39" >o</tspan><tspan x="257.97" y="26.39" >p</tspan><tspan x="310.64" y="26.39" >e</tspan><tspan x="360.11" y="26.39" >r</tspan></text>
</g>
<g transform="matrix(11 -1.2 0.14 1.33 500.45 299.49)" id="33938dcd-d1fa-4653-9162-b5233b552e54"  >
<path style="stroke: rgb(255,0,0); stroke-width: 0; stroke-dasharray: none; stroke-linecap: butt; stroke-dashoffset: 0; stroke-linejoin: miter; stroke-miterlimit: 4; fill: rgb(255,0,0); fill-rule: nonzero; opacity: 1;" vector-effect="non-scaling-stroke"  transform=" translate(-50, -50)" d="M 94.75 50 C 94.75 56.213 89.514 61.25 83.054 61.25 L 16.946 61.25 C 10.486 61.25 5.25 56.213 5.25 50 L 5.25 50 C 5.25 43.787 10.486 38.75 16.945999999999998 38.75 L 83.053 38.75 C 89.514 38.75 94.75 43.787 94.75 50 L 94.75 50 z" stroke-linecap="round" />
</g>
</svg>